<svg xmlns="http://www.w3.org/2000/svg" width="1012" height="1037" viewBox="0 0 1012 1037">
<g>
<path d="M 510.00 1036.58 C510.00,1036.81 622.95,1037.00 761.00,1037.00 L 0.00 1037.00 L 0.00 0.00 L 1012.00 0.00 L 1012.00 1037.00 L 1011.82 687.75 C1011.71,497.51 1011.49,343.96 1011.32,343.96 C1011.32,343.96 1011.32,343.97 1011.32,344.00 C1010.49,358.45 1007.71,388.60 1005.42,408.00 C999.70,456.48 991.78,495.97 977.35,547.88 C958.14,616.95 928.55,684.47 893.31,739.64 C826.41,844.35 725.59,932.85 599.50,997.54 C573.99,1010.63 530.81,1029.47 513.75,1034.95 C511.69,1035.61 510.00,1036.35 510.00,1036.58 ZM 757.25 836.45 C782.18,843.17 807.93,825.70 812.02,799.28 C813.13,792.14 812.12,781.97 809.89,777.80 C809.14,776.39 810.89,773.61 818.74,763.77 C844.75,731.16 865.91,697.93 883.03,662.79 L 890.10 648.28 L 897.30 647.73 C911.91,646.61 925.02,638.82 932.12,627.06 C937.01,618.97 938.06,615.52 938.71,605.41 C939.53,592.75 936.06,582.73 927.60,573.32 L 923.04 568.25 L 925.56 560.87 C929.46,549.48 938.52,517.89 941.87,504.00 C959.74,429.95 968.34,354.15 968.30,271.00 C968.28,237.96 966.75,198.01 965.14,188.58 L 964.45 184.51 L 945.97 181.85 C926.17,179.00 895.43,173.70 887.90,171.83 C883.91,170.85 883.12,170.21 882.03,167.10 C879.29,159.34 870.04,140.95 864.15,131.57 C860.74,126.15 858.15,121.52 858.39,121.28 C858.63,121.04 865.72,122.22 874.16,123.90 C909.05,130.86 968.61,140.29 991.30,142.45 C998.89,143.18 1005.30,143.97 1005.55,144.22 C1006.06,144.73 1009.54,180.95 1010.86,199.50 C1011.41,207.28 1011.77,174.33 1011.86,105.75 L 1012.00 0.00 L 507.50 0.01 L 510.84 2.05 C516.36,5.41 554.17,24.03 574.75,33.52 C585.34,38.40 594.00,42.64 593.99,42.95 C593.99,43.25 590.28,45.08 585.76,47.00 C577.25,50.62 559.86,60.25 551.77,65.82 C549.22,67.57 546.77,69.01 546.32,69.02 C545.87,69.03 536.83,64.90 526.23,59.84 L 506.95 50.64 L 480.23 63.74 C452.05,77.55 434.07,85.40 404.50,96.80 C301.66,136.44 168.41,169.60 57.89,183.04 L 48.28 184.21 L 47.65 193.36 C43.31,256.48 44.46,322.60 51.00,386.21 C54.04,415.76 54.20,416.93 55.39,417.82 C57.00,419.04 115.40,417.39 136.50,415.53 C181.34,411.59 218.36,405.85 265.22,395.59 C277.48,392.90 306.58,385.10 319.64,381.00 C373.68,364.02 405.24,350.87 462.00,321.70 C497.62,303.39 533.52,285.96 553.00,277.52 C571.23,269.63 610.69,253.73 616.68,251.86 L 620.85 250.56 L 621.51 244.53 C623.04,230.43 628.31,219.46 638.39,209.40 C652.46,195.35 671.50,189.96 690.91,194.54 C710.75,199.22 726.80,216.24 731.56,237.64 C733.21,245.06 733.17,252.19 731.42,262.13 L 730.78 265.76 L 742.64 274.62 C767.28,293.03 793.57,309.77 844.94,339.74 C855.08,345.66 863.52,350.96 863.69,351.52 C863.98,352.43 841.05,374.03 838.98,374.80 C837.12,375.50 769.33,334.87 748.50,320.56 C743.55,317.16 733.72,310.13 726.66,304.94 C719.60,299.75 713.19,295.05 712.41,294.51 C711.44,293.82 710.31,293.96 708.75,294.95 C698.80,301.27 686.99,305.01 677.09,304.99 C663.93,304.95 647.83,298.22 637.62,288.49 C634.45,285.47 631.26,283.00 630.53,283.00 C629.80,283.00 625.44,284.55 620.85,286.44 C616.26,288.33 600.80,294.66 586.50,300.52 C556.46,312.81 534.00,323.45 471.50,354.96 C446.75,367.44 421.55,379.81 415.50,382.46 C390.41,393.42 337.06,412.21 310.53,419.43 C231.58,440.92 153.91,452.00 82.22,452.00 C61.40,452.00 59.90,452.12 60.37,453.75 C60.65,454.71 62.29,462.92 64.01,471.99 C66.82,486.78 78.33,534.11 79.63,536.22 C79.92,536.68 80.32,538.40 80.53,540.04 C80.97,543.48 87.58,565.04 89.56,569.50 C90.30,571.15 93.37,579.41 96.40,587.86 C99.42,596.31 102.03,603.36 102.20,603.52 C102.36,603.68 109.95,605.41 119.04,607.36 C176.07,619.61 211.04,629.97 271.78,652.61 C302.17,663.94 329.37,675.29 371.03,694.01 C387.83,701.55 402.57,708.05 403.78,708.43 C405.71,709.04 406.00,709.84 406.00,714.48 C406.00,720.73 408.72,730.14 412.29,736.23 C418.42,746.69 431.85,755.71 444.67,757.97 C456.86,760.12 471.93,754.74 481.96,744.66 L 487.08 739.51 L 497.79 743.41 C520.24,751.59 566.40,766.87 588.00,773.27 C646.92,790.74 677.59,797.75 720.04,803.45 C724.54,804.05 724.61,804.12 727.48,810.78 C729.58,815.64 732.19,819.32 736.94,824.10 C743.99,831.20 748.96,834.22 757.25,836.45 ZM 0.19 674.25 L 0.00 1037.00 L 505.50 1036.93 L 488.64 1030.49 C479.37,1026.95 466.32,1021.74 459.64,1018.90 C442.96,1011.82 402.16,991.65 387.00,982.99 C299.61,933.05 234.79,881.48 176.50,815.50 C169.55,807.64 145.66,777.41 139.32,768.47 C109.71,726.65 85.43,682.65 66.34,636.18 C27.47,541.58 5.69,436.03 0.66,318.00 C0.66,317.96 0.66,317.94 0.66,317.94 C0.51,317.94 0.30,476.92 0.19,674.25 ZM 0.20 123.75 C0.31,188.96 0.51,239.29 0.66,239.29 C0.67,239.29 0.67,239.20 0.68,239.00 C1.54,212.32 6.30,145.62 7.45,144.26 C7.56,144.13 13.92,143.33 21.57,142.49 C41.81,140.26 81.05,134.54 107.50,129.94 C185.03,116.49 242.20,102.49 324.50,76.82 C340.77,71.75 379.75,57.56 404.95,47.55 C434.50,35.80 489.86,10.15 503.17,2.04 L 506.50 0.01 L 0.00 0.00 ZM 410.10 965.42 C416.61,967.17 422.89,967.35 430.11,965.99 C451.46,961.97 468.00,939.46 465.55,917.77 C463.58,900.28 453.20,886.03 438.00,879.96 C430.55,876.98 416.43,876.23 409.50,878.44 L 404.50 880.04 L 401.86 876.77 C400.40,874.97 394.72,867.88 389.24,861.00 C358.53,822.51 321.35,785.38 282.84,754.74 C246.39,725.75 219.55,708.30 182.50,689.52 C164.28,680.28 134.60,667.00 132.17,667.00 C130.97,667.00 141.87,687.49 149.84,700.22 L 155.66 709.50 L 169.58 716.78 C210.51,738.16 240.65,758.49 279.01,790.58 C312.87,818.90 360.18,869.21 377.55,895.37 L 381.05 900.64 L 378.79 905.57 C376.89,909.72 376.53,912.24 376.52,921.50 C376.50,932.16 376.62,932.74 380.23,940.32 C386.23,952.87 396.95,961.88 410.10,965.42 ZM 669.59 270.49 C682.38,275.37 697.70,265.82 699.62,251.76 C701.95,234.72 683.89,220.85 668.50,227.87 C655.49,233.80 650.61,246.19 656.40,258.62 C658.98,264.14 663.40,268.12 669.59,270.49 Z" fill="rgb(7,42,70)"/>
<path d="M 701.50 675.40 C703.70,675.62 717.20,675.65 731.50,675.47 C751.61,675.22 760.64,674.66 771.37,673.03 C803.35,668.16 834.65,657.60 859.31,643.38 L 867.20 638.83 L 874.36 642.46 C881.82,646.25 889.04,648.02 896.18,647.81 L 890.10 648.28 L 883.03 662.79 C865.91,697.93 844.75,731.16 818.74,763.77 C810.89,773.61 809.14,776.39 809.89,777.80 C811.05,779.96 811.87,783.72 812.25,787.83 C810.05,768.70 795.12,752.24 775.03,748.80 C757.68,745.82 739.23,754.15 730.02,769.13 L 726.87 774.24 L 720.68 773.56 C709.26,772.29 677.68,765.98 655.50,760.53 C620.40,751.91 580.97,740.24 544.00,727.52 C533.28,723.83 517.88,718.57 509.78,715.83 L 495.06 710.85 L 494.47 707.17 C492.73,696.44 484.89,683.59 476.02,676.92 C460.97,665.62 436.75,666.62 422.50,679.14 L 418.94 682.26 L 408.72 677.70 C403.10,675.19 392.88,670.58 386.00,667.47 C333.25,643.58 261.14,615.43 219.92,602.64 C187.00,592.43 138.05,580.03 109.03,574.54 C91.93,571.31 90.65,571.29 91.56,574.25 C91.79,575.01 92.40,576.79 93.23,579.12 C91.46,574.33 90.03,570.56 89.56,569.50 C87.58,565.04 80.97,543.48 80.53,540.04 C80.32,538.40 79.92,536.68 79.63,536.22 C78.98,535.17 75.79,522.82 72.40,508.89 C75.86,522.97 79.18,535.47 80.09,537.16 C80.90,538.69 82.30,539.00 88.30,539.00 C122.31,539.00 193.60,547.50 251.50,558.46 C327.13,572.78 417.73,598.28 517.00,633.20 C547.97,644.09 567.55,650.04 596.50,657.36 C632.23,666.39 660.93,671.72 686.00,673.97 C692.33,674.54 699.30,675.18 701.50,675.40 ZM 0.45 391.22 C0.52,345.23 0.59,317.94 0.66,317.94 C0.66,317.94 0.66,317.96 0.66,318.00 C1.91,347.36 4.20,375.94 7.53,403.78 C4.98,382.72 3.00,361.14 1.58,339.00 C1.45,336.99 1.33,335.84 1.23,335.84 C0.85,335.84 0.61,350.09 0.45,391.22 ZM 0.47 217.15 C0.66,229.19 0.98,225.82 1.56,215.50 C2.04,206.88 3.09,192.58 4.18,179.05 C2.66,199.89 1.13,224.98 0.68,239.00 C0.67,239.20 0.67,239.29 0.66,239.29 C0.60,239.29 0.53,231.14 0.47,217.15 ZM 919.18 640.35 C928.81,633.93 935.33,624.07 937.88,613.24 C937.03,618.11 935.49,621.48 932.12,627.06 C928.91,632.39 924.45,636.91 919.18,640.35 ZM 938.05 593.44 C936.48,586.32 933.07,579.40 927.60,573.32 C933.21,579.56 936.63,586.07 938.05,593.44 ZM 30.29 526.99 C40.00,564.93 52.01,601.30 66.34,636.18 C51.98,601.24 39.99,564.95 30.29,526.99 ZM 99.39 596.14 C100.89,600.20 102.05,603.26 102.21,603.53 C102.20,603.52 102.20,603.52 102.20,603.52 C102.09,603.42 100.97,600.47 99.39,596.14 ZM 7.42 144.31 C7.43,144.28 7.43,144.27 7.44,144.26 C7.50,144.19 9.40,143.92 12.35,143.56 C9.40,143.92 7.51,144.19 7.45,144.26 C7.44,144.27 7.43,144.29 7.42,144.31 Z" fill="rgb(30,154,143)"/>
<path d="M 502.00 502.89 C517.35,504.10 557.34,504.15 573.50,502.97 C645.59,497.73 708.14,480.48 773.19,447.91 C841.58,413.67 906.20,360.81 962.41,293.14 L 968.21 286.16 C967.25,363.41 958.65,434.47 941.87,504.00 C938.52,517.89 929.46,549.48 925.56,560.87 L 923.04 568.25 L 927.60 573.32 C930.53,576.58 932.86,579.91 934.62,583.39 C935.86,585.84 936.81,588.37 937.50,591.00 C937.71,591.81 937.89,592.62 938.05,593.44 C938.56,596.05 938.81,598.76 938.83,601.60 C938.81,601.12 938.79,600.64 938.76,600.15 C938.54,596.75 938.13,593.78 937.46,591.07 C936.77,588.33 935.82,585.84 934.51,583.43 C932.66,580.05 930.12,576.81 926.64,573.21 C918.33,564.63 910.71,560.47 900.75,559.09 C872.32,555.15 847.83,578.56 850.40,607.21 L 851.01 613.92 L 835.75 621.37 C812.98,632.50 792.81,638.61 765.50,642.66 C747.25,645.37 702.57,645.16 679.00,642.25 C633.33,636.61 589.32,625.94 533.41,606.96 C454.70,580.25 419.97,569.18 375.00,556.48 C285.05,531.08 184.03,513.36 104.50,509.03 C94.05,508.46 82.45,507.83 78.72,507.63 C72.86,507.31 72.01,507.48 72.40,508.88 C72.66,509.77 74.27,516.10 76.00,522.95 C77.71,529.71 79.53,536.04 80.09,537.16 C79.18,535.47 75.86,522.97 72.40,508.89 L 72.40 508.89 C69.00,494.93 65.42,479.39 64.01,471.99 L 63.88 471.31 C64.52,474.28 65.05,476.39 65.25,476.58 C65.55,476.88 72.25,476.43 80.15,475.59 C88.04,474.74 102.15,473.57 111.50,472.99 C133.54,471.62 210.08,471.62 234.50,472.98 C311.78,477.28 360.17,482.52 446.00,495.85 C469.01,499.42 487.49,501.75 502.00,502.89 ZM 902.40 174.71 C892.17,173.03 884.70,171.96 884.47,172.19 C884.18,172.49 885.31,176.95 886.99,182.11 C893.15,201.10 896.73,219.72 897.67,237.75 L 898.31 250.00 L 864.37 250.00 L 863.17 237.25 C860.52,209.03 853.21,184.14 840.64,160.50 C822.49,126.40 792.21,97.43 756.50,79.99 C732.67,68.36 711.35,63.19 683.50,62.30 C662.66,61.64 650.45,62.78 633.23,66.99 C618.06,70.70 609.05,73.98 595.50,80.75 C581.53,87.72 571.00,94.57 559.00,104.49 C539.41,120.70 527.21,135.38 513.11,159.75 C501.04,180.61 491.97,211.29 490.42,236.50 C490.00,243.49 490.23,246.90 488.64,248.55 C487.12,250.11 483.97,250.09 477.03,250.03 C475.53,250.01 473.86,250.00 471.98,250.00 L 455.00 250.00 L 455.00 244.61 C455.00,220.39 463.64,183.97 475.57,157.96 C490.20,126.04 509.66,100.49 536.25,78.26 C545.26,70.73 545.86,70.01 544.12,68.79 C543.08,68.07 534.29,63.69 524.58,59.06 L 506.92 50.66 L 506.95 50.64 L 526.23 59.84 C536.83,64.90 545.87,69.03 546.32,69.02 C546.77,69.01 549.22,67.57 551.77,65.82 C559.86,60.25 577.25,50.62 585.76,47.00 C590.28,45.08 593.99,43.25 593.99,42.95 C594.00,42.70 588.27,39.85 580.43,36.16 C580.56,36.22 580.68,36.28 580.81,36.33 L 595.11 42.78 L 604.31 39.50 C657.39,20.55 719.21,23.60 769.84,47.68 C799.82,61.93 827.80,83.99 848.28,109.50 C852.70,115.00 857.25,119.87 858.41,120.32 C859.81,120.87 863.20,121.70 868.04,122.73 C862.54,121.71 858.56,121.10 858.39,121.28 C858.15,121.52 860.74,126.15 864.15,131.57 C870.04,140.95 879.29,159.34 882.03,167.10 C883.12,170.21 883.91,170.85 887.90,171.83 C890.47,172.47 895.76,173.51 902.40,174.71 ZM 572.46 241.78 L 571.74 250.00 L 520.70 250.00 L 521.29 240.20 C523.12,210.26 535.62,176.98 553.49,154.50 C561.71,144.16 574.43,131.55 583.46,124.78 C612.03,103.37 641.15,93.72 677.50,93.60 C698.83,93.53 712.84,96.04 731.60,103.29 C785.34,124.06 821.56,170.08 830.54,229.00 C831.34,234.23 831.99,241.09 831.99,244.25 L 832.00 250.00 L 781.30 250.00 L 780.69 242.16 C779.48,226.44 772.19,205.59 762.79,191.00 C754.55,178.20 737.03,162.55 723.11,155.57 C708.75,148.36 691.39,144.01 677.00,144.01 C663.32,144.01 643.65,148.66 631.50,154.77 C616.87,162.13 599.63,177.06 591.10,189.78 C580.91,204.96 573.98,224.29 572.46,241.78 ZM 669.59 270.49 C663.40,268.12 658.98,264.14 656.40,258.62 C650.61,246.19 655.49,233.80 668.50,227.87 C683.89,220.85 701.95,234.72 699.62,251.76 C697.70,265.82 682.38,275.37 669.59,270.49 ZM 508.31 0.50 L 507.50 0.01 L 1012.00 0.00 L 1011.86 105.75 C1011.77,172.72 1011.43,205.71 1010.90,199.98 C1011.26,196.80 1011.63,158.00 1011.75,106.09 C1011.89,48.11 1011.86,0.52 1011.67,0.34 C1011.48,0.15 897.97,0.11 759.41,0.25 ZM 573.43 32.91 C554.11,23.96 521.45,7.90 512.50,2.99 L 537.00 15.19 C549.39,21.36 563.80,28.36 573.43,32.91 ZM 967.79 235.53 C966.69,203.96 965.43,185.99 964.23,184.89 C963.95,184.64 961.11,184.08 957.16,183.46 L 964.45 184.51 L 965.14 188.58 C966.19,194.72 967.20,213.83 967.79,235.53 ZM 84.05 675.56 C95.56,699.07 108.50,721.93 122.88,744.18 L 122.74 743.97 C108.72,722.57 95.81,699.71 84.05,675.56 ZM 991.30 142.45 C973.64,140.77 933.64,134.68 900.33,128.79 C932.43,134.39 973.79,140.78 991.30,142.45 ZM 4.18 372.24 C5.16,382.88 6.27,393.39 7.53,403.78 C9.05,416.48 10.78,429.03 12.73,441.42 C9.15,418.80 6.29,395.72 4.18,372.24 ZM 143.86 774.59 C148.33,780.50 154.66,788.60 160.68,796.17 L 160.14 795.50 C153.79,787.63 148.68,781.10 143.86,774.59 ZM 897.14 647.74 L 896.18 647.81 C889.04,648.02 881.82,646.25 874.36,642.46 C882.01,646.34 889.61,648.10 897.14,647.74 ZM 935.55 620.42 C936.78,617.39 937.68,614.19 938.23,610.88 C938.13,611.71 938.01,612.50 937.88,613.24 C937.31,615.70 936.52,618.10 935.55,620.42 ZM 0.81 224.81 C1.01,222.96 1.26,219.98 1.51,216.38 C1.22,221.56 0.99,224.78 0.81,224.81 ZM 1008.67 173.30 C1007.32,158.59 1005.91,144.93 1005.57,144.24 C1005.94,144.96 1007.37,158.87 1008.67,173.30 ZM 47.19 584.59 C51.76,598.32 56.66,611.84 61.91,625.16 C56.69,611.94 51.78,598.41 47.19,584.59 ZM 2.14 206.30 C2.47,201.13 3.01,193.84 3.62,186.06 C3.07,193.22 2.55,200.28 2.14,206.30 ZM 1.29 335.96 C1.38,336.31 1.47,337.38 1.58,339.00 C1.61,339.46 1.64,339.93 1.67,340.39 C1.54,338.78 1.41,337.30 1.29,335.96 ZM 951.54 182.65 C951.36,182.63 951.18,182.60 951.00,182.58 C948.92,182.31 945.85,181.86 942.17,181.29 C943.47,181.49 944.74,181.67 945.97,181.85 ZM 61.42 458.66 C60.88,455.99 60.50,454.17 60.37,453.75 C60.34,453.64 60.32,453.53 60.31,453.44 L 60.51 454.25 C60.65,454.86 60.99,456.51 61.42,458.66 Z" fill="rgb(135,203,190)"/>
<path d="M 0.00 682.83 C0.00,488.04 0.22,328.89 0.49,329.15 C0.76,329.42 1.66,339.37 2.49,351.26 C13.22,503.81 55.17,640.82 122.74,743.97 C136.83,765.47 144.94,776.65 160.14,795.50 C167.68,804.85 175.04,813.85 176.50,815.50 C234.79,881.48 299.61,933.05 387.00,982.99 C402.16,991.65 442.96,1011.82 459.64,1018.90 C466.32,1021.74 479.37,1026.95 488.64,1030.49 L 505.50 1036.93 L 252.75 1036.96 L 0.00 1037.00 L 0.00 682.83 ZM 510.00 1036.58 C510.00,1036.35 511.69,1035.61 513.75,1034.95 C530.81,1029.47 573.99,1010.63 599.50,997.54 C725.59,932.85 826.41,844.35 893.31,739.64 C928.55,684.47 958.14,616.95 977.35,547.88 C991.78,495.97 999.70,456.48 1005.42,408.00 C1007.71,388.60 1010.49,358.45 1011.32,344.00 C1011.49,340.98 1011.71,495.66 1011.82,687.75 L 1012.00 1037.00 L 761.00 1037.00 C622.95,1037.00 510.00,1036.81 510.00,1036.58 ZM 410.10 965.42 C396.95,961.88 386.23,952.87 380.23,940.32 C376.62,932.74 376.50,932.16 376.52,921.50 C376.53,912.24 376.89,909.72 378.79,905.57 L 381.05 900.64 L 377.55 895.37 C360.18,869.21 312.87,818.90 279.01,790.58 C240.65,758.49 210.51,738.16 169.58,716.78 L 155.66 709.50 L 149.84 700.22 C141.87,687.49 130.97,667.00 132.17,667.00 C134.60,667.00 164.28,680.28 182.50,689.52 C219.55,708.30 246.39,725.75 282.84,754.74 C321.35,785.38 358.53,822.51 389.24,861.00 C394.72,867.88 400.40,874.97 401.86,876.77 L 404.50 880.04 L 409.50 878.44 C416.43,876.23 430.55,876.98 438.00,879.96 C453.20,886.03 463.58,900.28 465.55,917.77 C468.00,939.46 451.46,961.97 430.11,965.99 C422.89,967.35 416.61,967.17 410.10,965.42 ZM 757.25 836.45 C748.96,834.22 743.99,831.20 736.94,824.10 C732.19,819.32 729.58,815.64 727.48,810.78 C724.61,804.12 724.54,804.05 720.04,803.45 C677.59,797.75 646.92,790.74 588.00,773.27 C566.40,766.87 520.24,751.59 497.79,743.41 L 487.08 739.51 L 481.96 744.66 C471.93,754.74 456.86,760.12 444.67,757.97 C431.85,755.71 418.42,746.69 412.29,736.23 C408.72,730.14 406.00,720.73 406.00,714.48 C406.00,709.84 405.71,709.04 403.78,708.43 C402.57,708.05 387.83,701.55 371.03,694.01 C329.37,675.29 302.17,663.94 271.78,652.61 C211.04,629.97 176.07,619.61 119.04,607.36 C109.95,605.41 102.37,603.69 102.22,603.54 C101.91,603.25 92.63,577.77 91.56,574.25 C90.65,571.29 91.93,571.31 109.03,574.54 C138.05,580.03 187.00,592.43 219.92,602.64 C261.14,615.43 333.25,643.58 386.00,667.47 C392.88,670.58 403.10,675.19 408.72,677.70 L 418.94 682.26 L 422.50 679.14 C436.75,666.62 460.97,665.62 476.02,676.92 C484.89,683.59 492.73,696.44 494.47,707.17 L 495.06 710.85 L 509.78 715.83 C517.88,718.57 533.28,723.83 544.00,727.52 C580.97,740.24 620.40,751.91 655.50,760.53 C677.68,765.98 709.26,772.29 720.68,773.56 L 726.87 774.24 L 730.02 769.13 C739.23,754.15 757.68,745.82 775.03,748.80 C799.04,752.92 815.69,775.64 812.02,799.28 C807.93,825.70 782.18,843.17 757.25,836.45 ZM 701.50 675.40 C699.30,675.18 692.33,674.54 686.00,673.97 C660.93,671.72 632.23,666.39 596.50,657.36 C567.55,650.04 547.97,644.09 517.00,633.20 C417.73,598.28 327.13,572.78 251.50,558.46 C193.60,547.50 122.31,539.00 88.30,539.00 C82.36,539.00 80.90,538.68 80.11,537.20 C79.58,536.21 77.73,529.80 76.00,522.95 C74.27,516.10 72.66,509.77 72.40,508.88 C72.01,507.48 72.86,507.31 78.72,507.63 C82.45,507.83 94.05,508.46 104.50,509.03 C184.03,513.36 285.05,531.08 375.00,556.48 C419.97,569.18 454.70,580.25 533.41,606.96 C589.32,625.94 633.33,636.61 679.00,642.25 C702.57,645.16 747.25,645.37 765.50,642.66 C792.81,638.61 812.98,632.50 835.75,621.37 L 851.01 613.92 L 850.40 607.21 C847.83,578.56 872.32,555.15 900.75,559.09 C910.71,560.47 918.33,564.63 926.64,573.21 C935.04,581.90 938.01,588.50 938.76,600.15 C939.93,618.55 930.52,635.19 914.46,643.09 C901.33,649.56 887.92,649.35 874.36,642.46 L 867.20 638.83 L 859.31 643.38 C834.65,657.60 803.35,668.16 771.37,673.03 C760.64,674.66 751.61,675.22 731.50,675.47 C717.20,675.65 703.70,675.62 701.50,675.40 ZM 502.00 502.89 C487.49,501.75 469.01,499.42 446.00,495.85 C360.17,482.52 311.78,477.28 234.50,472.98 C210.08,471.62 133.54,471.62 111.50,472.99 C102.15,473.57 88.04,474.74 80.15,475.59 C72.25,476.43 65.55,476.88 65.25,476.58 C64.95,476.29 63.88,471.64 62.88,466.27 C61.87,460.90 60.80,455.49 60.51,454.25 L 59.96 452.00 L 82.27 452.00 C153.90,452.00 231.61,440.91 310.53,419.43 C337.06,412.21 390.41,393.42 415.50,382.46 C421.55,379.81 446.75,367.44 471.50,354.96 C534.00,323.45 556.46,312.81 586.50,300.52 C600.80,294.66 616.26,288.33 620.85,286.44 C625.44,284.55 629.80,283.00 630.53,283.00 C631.26,283.00 634.45,285.47 637.62,288.49 C647.83,298.22 663.93,304.95 677.09,304.99 C686.99,305.01 698.80,301.27 708.75,294.95 C710.31,293.96 711.44,293.82 712.41,294.51 C713.19,295.05 719.60,299.75 726.66,304.94 C733.72,310.13 743.55,317.16 748.50,320.56 C769.33,334.87 837.12,375.50 838.98,374.80 C841.05,374.03 863.98,352.43 863.69,351.52 C863.52,350.96 855.08,345.66 844.94,339.74 C793.57,309.77 767.28,293.03 742.64,274.62 L 730.78 265.76 L 731.42 262.13 C733.17,252.19 733.21,245.06 731.56,237.64 C726.80,216.24 710.75,199.22 690.91,194.54 C671.50,189.96 652.46,195.35 638.39,209.40 C628.31,219.46 623.04,230.43 621.51,244.53 L 620.85 250.56 L 616.68 251.86 C610.69,253.73 571.23,269.63 553.00,277.52 C533.52,285.96 497.62,303.39 462.00,321.70 C405.24,350.87 373.68,364.02 319.64,381.00 C306.58,385.10 277.48,392.90 265.22,395.59 C218.36,405.85 181.34,411.59 136.50,415.53 C115.40,417.39 57.00,419.04 55.39,417.82 C54.20,416.93 54.04,415.76 51.00,386.21 C44.46,322.60 43.31,256.48 47.65,193.36 L 48.28 184.21 L 57.89 183.04 C168.41,169.60 301.66,136.44 404.50,96.80 C434.06,85.40 452.05,77.55 480.21,63.75 L 506.92 50.66 L 524.58 59.06 C534.29,63.69 543.08,68.07 544.12,68.79 C545.86,70.01 545.26,70.73 536.25,78.26 C509.66,100.49 490.20,126.04 475.57,157.96 C463.64,183.97 455.00,220.39 455.00,244.61 L 455.00 250.00 L 471.98 250.00 C491.65,250.00 489.50,251.57 490.42,236.50 C491.97,211.29 501.04,180.61 513.11,159.75 C527.21,135.38 539.41,120.70 559.00,104.49 C571.00,94.57 581.53,87.72 595.50,80.75 C609.05,73.98 618.06,70.70 633.23,66.99 C650.45,62.78 662.66,61.64 683.50,62.30 C711.35,63.19 732.67,68.36 756.50,79.99 C792.21,97.43 822.49,126.40 840.64,160.50 C853.21,184.14 860.52,209.03 863.17,237.25 L 864.37 250.00 L 881.34 250.00 L 898.31 250.00 L 897.67 237.75 C896.73,219.72 893.15,201.10 886.99,182.11 C885.31,176.95 884.18,172.49 884.47,172.19 C884.77,171.90 897.04,173.75 911.75,176.30 C926.46,178.85 944.12,181.68 951.00,182.58 C957.88,183.48 963.83,184.52 964.23,184.89 C965.56,186.11 966.97,208.20 968.15,246.66 L 969.33 284.81 L 962.41 293.14 C906.20,360.81 841.58,413.67 773.19,447.91 C708.14,480.48 645.59,497.73 573.50,502.97 C557.34,504.15 517.35,504.10 502.00,502.89 ZM 572.46 241.78 C573.98,224.29 580.91,204.96 591.10,189.78 C599.63,177.06 616.87,162.13 631.50,154.77 C643.65,148.66 663.32,144.01 677.00,144.01 C691.39,144.01 708.75,148.36 723.11,155.57 C737.03,162.55 754.55,178.20 762.79,191.00 C772.19,205.59 779.48,226.44 780.69,242.16 L 781.30 250.00 L 806.65 250.00 L 832.00 250.00 L 831.99 244.25 C831.99,241.09 831.34,234.23 830.54,229.00 C821.56,170.08 785.34,124.06 731.60,103.29 C712.84,96.04 698.83,93.53 677.50,93.60 C641.15,93.72 612.03,103.37 583.46,124.78 C574.43,131.55 561.71,144.16 553.49,154.50 C535.62,176.98 523.12,210.26 521.29,240.20 L 520.70 250.00 L 546.22 250.00 L 571.74 250.00 L 572.46 241.78 ZM 0.00 113.67 L 0.00 0.00 L 253.25 0.00 L 506.50 0.01 L 503.17 2.04 C489.86,10.15 434.50,35.80 404.95,47.55 C379.75,57.56 340.77,71.75 324.50,76.82 C242.20,102.49 185.03,116.49 107.50,129.94 C81.05,134.54 41.81,140.26 21.57,142.49 C13.92,143.33 7.56,144.13 7.44,144.26 C6.96,144.83 2.88,193.03 1.98,208.92 C1.43,218.51 0.76,226.57 0.49,226.84 C0.22,227.11 0.00,176.18 0.00,113.67 ZM 1010.76 199.50 C1009.79,183.69 1006.13,144.79 1005.55,144.22 C1005.30,143.97 998.89,143.18 991.30,142.45 C962.26,139.68 867.60,123.92 858.41,120.32 C857.25,119.87 852.70,115.00 848.28,109.50 C827.80,83.99 799.82,61.93 769.84,47.68 C719.21,23.60 657.39,20.55 604.31,39.50 L 595.11 42.78 L 580.81 36.33 C572.94,32.79 553.22,23.27 537.00,15.19 L 507.50 0.50 L 759.41 0.25 C897.97,0.11 1011.48,0.15 1011.67,0.34 C1011.86,0.52 1011.89,48.11 1011.75,106.09 C1011.61,164.37 1011.17,206.13 1010.76,199.50 Z" fill="none"/>
</g>
</svg>