<svg width="400" height="460" viewBox="0 0 400 460" fill="none" xmlns="http://www.w3.org/2000/svg">
  <!-- Shield Outline -->
  <path d="M200 10C140 10 80 20 30 50C30 50 20 180 20 220C20 310 100 380 200 440C300 380 380 310 380 220C380 180 370 50 370 50C320 20 260 10 200 10Z" fill="#050d18" stroke="#1a3a5c" stroke-width="12"/>

  <!-- Wave Layer 1 (top wave - lightest teal) -->
  <path d="M32 185C80 170 140 210 200 180C260 150 320 195 368 175L368 230C320 250 260 210 200 240C140 270 80 230 32 245Z" fill="#a8e6cf" opacity="0.7"/>

  <!-- Wave Layer 2 (middle wave - medium teal) -->
  <path d="M32 235C90 215 150 265 210 240C270 215 330 260 368 245L368 300C330 315 270 275 210 300C150 325 90 280 32 295Z" fill="#5bbfa0" opacity="0.85"/>

  <!-- Wave Layer 3 (bottom wave - deep teal) -->
  <path d="M35 290C95 275 160 315 220 295C280 275 340 310 375 300L368 370C330 355 270 340 210 355C150 370 90 345 40 365Z" fill="#2d9b83" opacity="0.9"/>

  <!-- Signal/WiFi Arcs (top-right of shield) -->
  <path d="M240 95C240 95 255 65 275 65C295 65 310 95 310 95" stroke="#7edbbe" stroke-width="8" stroke-linecap="round" fill="none" opacity="0.5"/>
  <path d="M250 85C250 85 262 62 275 62C288 62 300 85 300 85" stroke="#7edbbe" stroke-width="8" stroke-linecap="round" fill="none" opacity="0.7"/>
  <path d="M260 78C260 78 268 62 275 62C282 62 290 78 290 78" stroke="#a8e6cf" stroke-width="7" stroke-linecap="round" fill="none"/>

  <!-- Center dot of signal -->
  <circle cx="275" cy="105" r="7" fill="#a8e6cf"/>

  <!-- Diagonal topology line from signal dot -->
  <path d="M275 105L195 165" stroke="#0a1525" stroke-width="6" stroke-linecap="round"/>

  <!-- Circuit dots along waves -->
  <circle cx="310" cy="225" r="8" fill="#e0f5ee"/>
  <circle cx="340" cy="270" r="8" fill="#c5ece0"/>
  <circle cx="100" cy="310" r="8" fill="#b0e5d5"/>
  <circle cx="65" cy="355" r="8" fill="#8fd8c2"/>

  <!-- Circuit connecting lines -->
  <path d="M310 225L340 270" stroke="#e0f5ee" stroke-width="4" stroke-linecap="round" opacity="0.6"/>
  <path d="M100 310L65 355" stroke="#b0e5d5" stroke-width="4" stroke-linecap="round" opacity="0.6"/>

  <!-- Text: HEADLAND -->
  <text x="52" y="440" style="font-family: 'Inter', 'Helvetica Neue', Arial, sans-serif; font-size: 52px; font-weight: 800; letter-spacing: -0.01em;" fill="#e2e8f0">HEADLAND</text>
  <!-- Text: CYBER -->
  <text x="298" y="440" style="font-family: 'Inter', 'Helvetica Neue', Arial, sans-serif; font-size: 52px; font-weight: 800; letter-spacing: -0.01em;" fill="#64ffda">CYBER</text>
</svg>
